<mxfile host="app.diagrams.net" modified="2023-08-06T11:54:34.447Z" agent="Mozilla/5.0 (Macintosh; Intel Mac OS X 10.15; rv:109.0) Gecko/20100101 Firefox/115.0" etag="XgdIMeMvUEYmSqf4ff79" version="21.6.6" type="device">
  <diagram name="Page-1" id="Pf4ZqPvS5ubic4LbeftZ">
    <mxGraphModel dx="2074" dy="1073" grid="1" gridSize="10" guides="1" tooltips="1" connect="1" arrows="1" fold="1" page="1" pageScale="1" pageWidth="1169" pageHeight="827" math="0" shadow="0">
      <root>
        <mxCell id="0" />
        <mxCell id="1" parent="0" />
        <mxCell id="9u9uwauOA2MTBnKvutFg-3" style="edgeStyle=orthogonalEdgeStyle;rounded=0;orthogonalLoop=1;jettySize=auto;html=1;exitX=1;exitY=0.5;exitDx=0;exitDy=0;entryX=0;entryY=0.5;entryDx=0;entryDy=0;fillColor=#b1ddf0;strokeColor=#10739e;" edge="1" parent="1" source="9u9uwauOA2MTBnKvutFg-1" target="9u9uwauOA2MTBnKvutFg-2">
          <mxGeometry relative="1" as="geometry" />
        </mxCell>
        <mxCell id="9u9uwauOA2MTBnKvutFg-1" value="1. Asset Identified" style="rounded=1;whiteSpace=wrap;html=1;fillColor=#b1ddf0;strokeColor=#10739e;" vertex="1" parent="1">
          <mxGeometry x="40" y="280" width="120" height="60" as="geometry" />
        </mxCell>
        <mxCell id="9u9uwauOA2MTBnKvutFg-12" style="edgeStyle=orthogonalEdgeStyle;rounded=0;orthogonalLoop=1;jettySize=auto;html=1;exitX=1;exitY=0.5;exitDx=0;exitDy=0;entryX=0;entryY=0.5;entryDx=0;entryDy=0;fillColor=#b0e3e6;strokeColor=#0e8088;" edge="1" parent="1" source="9u9uwauOA2MTBnKvutFg-2" target="9u9uwauOA2MTBnKvutFg-4">
          <mxGeometry relative="1" as="geometry" />
        </mxCell>
        <mxCell id="9u9uwauOA2MTBnKvutFg-2" value="2. Risk Owner Assigned" style="rounded=1;whiteSpace=wrap;html=1;fillColor=#b0e3e6;strokeColor=#0e8088;" vertex="1" parent="1">
          <mxGeometry x="240" y="280" width="120" height="60" as="geometry" />
        </mxCell>
        <mxCell id="9u9uwauOA2MTBnKvutFg-7" style="edgeStyle=orthogonalEdgeStyle;rounded=0;orthogonalLoop=1;jettySize=auto;html=1;exitX=0.5;exitY=1;exitDx=0;exitDy=0;entryX=0.5;entryY=0;entryDx=0;entryDy=0;fillColor=#b0e3e6;strokeColor=#0e8088;" edge="1" parent="1" source="9u9uwauOA2MTBnKvutFg-4" target="9u9uwauOA2MTBnKvutFg-6">
          <mxGeometry relative="1" as="geometry" />
        </mxCell>
        <mxCell id="9u9uwauOA2MTBnKvutFg-4" value="3. Risk Description" style="rounded=1;whiteSpace=wrap;html=1;fillColor=#b0e3e6;strokeColor=#0e8088;" vertex="1" parent="1">
          <mxGeometry x="400" y="280" width="120" height="60" as="geometry" />
        </mxCell>
        <mxCell id="9u9uwauOA2MTBnKvutFg-16" style="edgeStyle=orthogonalEdgeStyle;rounded=0;orthogonalLoop=1;jettySize=auto;html=1;exitX=1;exitY=0.5;exitDx=0;exitDy=0;entryX=0;entryY=0.5;entryDx=0;entryDy=0;fillColor=#b1ddf0;strokeColor=#10739e;" edge="1" parent="1" source="9u9uwauOA2MTBnKvutFg-5" target="9u9uwauOA2MTBnKvutFg-13">
          <mxGeometry relative="1" as="geometry" />
        </mxCell>
        <mxCell id="9u9uwauOA2MTBnKvutFg-5" value="4. Threat Analysis" style="rounded=1;whiteSpace=wrap;html=1;fillColor=#fad7ac;strokeColor=#b46504;" vertex="1" parent="1">
          <mxGeometry x="600" y="280" width="120" height="60" as="geometry" />
        </mxCell>
        <mxCell id="9u9uwauOA2MTBnKvutFg-9" style="edgeStyle=orthogonalEdgeStyle;rounded=0;orthogonalLoop=1;jettySize=auto;html=1;exitX=0.5;exitY=1;exitDx=0;exitDy=0;entryX=0.5;entryY=0;entryDx=0;entryDy=0;fillColor=#b0e3e6;strokeColor=#0e8088;" edge="1" parent="1" source="9u9uwauOA2MTBnKvutFg-6" target="9u9uwauOA2MTBnKvutFg-8">
          <mxGeometry relative="1" as="geometry" />
        </mxCell>
        <mxCell id="9u9uwauOA2MTBnKvutFg-6" value="3.1. Identification Date" style="rounded=0;whiteSpace=wrap;html=1;fillColor=#b0e3e6;strokeColor=#0e8088;" vertex="1" parent="1">
          <mxGeometry x="400" y="380" width="120" height="60" as="geometry" />
        </mxCell>
        <mxCell id="9u9uwauOA2MTBnKvutFg-11" style="edgeStyle=orthogonalEdgeStyle;rounded=0;orthogonalLoop=1;jettySize=auto;html=1;exitX=0.5;exitY=1;exitDx=0;exitDy=0;fillColor=#b0e3e6;strokeColor=#0e8088;" edge="1" parent="1" source="9u9uwauOA2MTBnKvutFg-8" target="9u9uwauOA2MTBnKvutFg-10">
          <mxGeometry relative="1" as="geometry" />
        </mxCell>
        <mxCell id="9u9uwauOA2MTBnKvutFg-8" value="3.2. Review Date" style="rounded=0;whiteSpace=wrap;html=1;fillColor=#b0e3e6;strokeColor=#0e8088;" vertex="1" parent="1">
          <mxGeometry x="400" y="470" width="120" height="60" as="geometry" />
        </mxCell>
        <mxCell id="9u9uwauOA2MTBnKvutFg-18" style="edgeStyle=orthogonalEdgeStyle;rounded=0;orthogonalLoop=1;jettySize=auto;html=1;exitX=0.5;exitY=1;exitDx=0;exitDy=0;entryX=0.5;entryY=1;entryDx=0;entryDy=0;fillColor=#b1ddf0;strokeColor=#10739e;" edge="1" parent="1" source="9u9uwauOA2MTBnKvutFg-10" target="9u9uwauOA2MTBnKvutFg-5">
          <mxGeometry relative="1" as="geometry" />
        </mxCell>
        <mxCell id="9u9uwauOA2MTBnKvutFg-10" value="3.2. Optional Risk Notes Creation" style="rounded=0;whiteSpace=wrap;html=1;fillColor=#b0e3e6;strokeColor=#0e8088;" vertex="1" parent="1">
          <mxGeometry x="400" y="560" width="120" height="60" as="geometry" />
        </mxCell>
        <mxCell id="9u9uwauOA2MTBnKvutFg-17" style="edgeStyle=orthogonalEdgeStyle;rounded=0;orthogonalLoop=1;jettySize=auto;html=1;exitX=1;exitY=0.5;exitDx=0;exitDy=0;entryX=0;entryY=0.5;entryDx=0;entryDy=0;fillColor=#b1ddf0;strokeColor=#10739e;" edge="1" parent="1" source="9u9uwauOA2MTBnKvutFg-13" target="9u9uwauOA2MTBnKvutFg-14">
          <mxGeometry relative="1" as="geometry" />
        </mxCell>
        <mxCell id="9u9uwauOA2MTBnKvutFg-13" value="5. Controls Analysis" style="rounded=1;whiteSpace=wrap;html=1;fillColor=#fad9d5;strokeColor=#ae4132;" vertex="1" parent="1">
          <mxGeometry x="800" y="280" width="120" height="60" as="geometry" />
        </mxCell>
        <mxCell id="9u9uwauOA2MTBnKvutFg-14" value="6. Report Generation" style="rounded=1;whiteSpace=wrap;html=1;fillColor=#bac8d3;strokeColor=#23445d;" vertex="1" parent="1">
          <mxGeometry x="1000" y="280" width="120" height="60" as="geometry" />
        </mxCell>
        <mxCell id="9u9uwauOA2MTBnKvutFg-20" value="" style="endArrow=none;dashed=1;html=1;rounded=0;fillColor=#b1ddf0;strokeColor=#10739e;" edge="1" parent="1">
          <mxGeometry width="50" height="50" relative="1" as="geometry">
            <mxPoint x="560" y="680" as="sourcePoint" />
            <mxPoint x="560" y="200" as="targetPoint" />
          </mxGeometry>
        </mxCell>
        <mxCell id="9u9uwauOA2MTBnKvutFg-21" value="" style="endArrow=none;dashed=1;html=1;rounded=0;fillColor=#b1ddf0;strokeColor=#10739e;" edge="1" parent="1">
          <mxGeometry width="50" height="50" relative="1" as="geometry">
            <mxPoint x="760" y="680" as="sourcePoint" />
            <mxPoint x="760" y="200" as="targetPoint" />
          </mxGeometry>
        </mxCell>
        <mxCell id="9u9uwauOA2MTBnKvutFg-22" value="" style="endArrow=none;dashed=1;html=1;rounded=0;fillColor=#b1ddf0;strokeColor=#10739e;" edge="1" parent="1">
          <mxGeometry width="50" height="50" relative="1" as="geometry">
            <mxPoint x="960" y="680" as="sourcePoint" />
            <mxPoint x="960" y="200" as="targetPoint" />
          </mxGeometry>
        </mxCell>
        <mxCell id="9u9uwauOA2MTBnKvutFg-24" value="" style="endArrow=none;dashed=1;html=1;rounded=0;fillColor=#b1ddf0;strokeColor=#10739e;" edge="1" parent="1">
          <mxGeometry width="50" height="50" relative="1" as="geometry">
            <mxPoint x="200" y="680" as="sourcePoint" />
            <mxPoint x="200" y="200" as="targetPoint" />
          </mxGeometry>
        </mxCell>
        <mxCell id="9u9uwauOA2MTBnKvutFg-26" value="&lt;font style=&quot;font-size: 16px;&quot;&gt;Asset Identification&lt;/font&gt;" style="text;html=1;align=center;verticalAlign=middle;whiteSpace=wrap;rounded=0;" vertex="1" parent="1">
          <mxGeometry x="10" y="170" width="180" height="30" as="geometry" />
        </mxCell>
        <mxCell id="9u9uwauOA2MTBnKvutFg-27" value="&lt;font style=&quot;font-size: 16px;&quot;&gt;Risk Description&lt;/font&gt;" style="text;html=1;align=center;verticalAlign=middle;whiteSpace=wrap;rounded=0;" vertex="1" parent="1">
          <mxGeometry x="300" y="170" width="180" height="30" as="geometry" />
        </mxCell>
        <mxCell id="9u9uwauOA2MTBnKvutFg-28" value="&lt;font style=&quot;font-size: 16px;&quot;&gt;Threat Analysis&lt;/font&gt;" style="text;html=1;align=center;verticalAlign=middle;whiteSpace=wrap;rounded=0;" vertex="1" parent="1">
          <mxGeometry x="570" y="170" width="180" height="30" as="geometry" />
        </mxCell>
        <mxCell id="9u9uwauOA2MTBnKvutFg-29" value="&lt;font style=&quot;font-size: 16px;&quot;&gt;Controls Analysis&lt;/font&gt;" style="text;html=1;align=center;verticalAlign=middle;whiteSpace=wrap;rounded=0;" vertex="1" parent="1">
          <mxGeometry x="770" y="170" width="180" height="30" as="geometry" />
        </mxCell>
        <mxCell id="9u9uwauOA2MTBnKvutFg-30" value="&lt;font style=&quot;font-size: 16px;&quot;&gt;Report Generation&lt;/font&gt;" style="text;html=1;align=center;verticalAlign=middle;whiteSpace=wrap;rounded=0;" vertex="1" parent="1">
          <mxGeometry x="970" y="170" width="180" height="30" as="geometry" />
        </mxCell>
      </root>
    </mxGraphModel>
  </diagram>
</mxfile>
